<?xml version="1.0" standalone="no"?>
<!DOCTYPE svg PUBLIC "-//W3C//DTD SVG 20010904//EN"
 "http://www.w3.org/TR/2001/REC-SVG-20010904/DTD/svg10.dtd">
<svg version="1.0" xmlns="http://www.w3.org/2000/svg"
 width="300.000000pt" height="300.000000pt" viewBox="0 0 300.000000 300.000000"
 preserveAspectRatio="xMidYMid meet">
<metadata>
Created by potrace 1.10, written by Peter Selinger 2001-2011
</metadata>
<g transform="translate(0.000000,300.000000) scale(0.100000,-0.100000)"
fill="#000000" stroke="none">
<path d="M708 2670 c-48 -26 -83 -72 -110 -146 -17 -48 -21 -83 -22 -189 l-1
-130 -52 -70 c-179 -240 -261 -532 -207 -730 11 -41 16 -94 15 -165 -3 -175
51 -315 163 -425 34 -33 74 -83 90 -110 41 -70 140 -164 213 -203 83 -44 136
-61 215 -72 49 -6 95 -22 170 -59 224 -110 438 -107 657 10 54 29 93 42 145
49 83 11 135 28 218 72 73 39 174 135 214 203 15 28 56 77 89 110 111 110 168
257 164 419 -1 59 4 119 16 170 48 212 -28 485 -202 725 l-68 93 9 77 c17 143
-28 291 -107 355 -31 25 -49 31 -100 34 -71 4 -111 -10 -180 -62 l-45 -34 -64
26 c-57 24 -75 27 -184 27 -116 0 -123 -1 -181 -31 l-61 -32 -59 29 c-108 54
-250 55 -375 5 l-60 -24 -46 35 c-26 20 -61 42 -79 49 -47 20 -131 17 -175 -6z
m186 -86 c25 -16 46 -31 46 -34 0 -3 -19 -16 -43 -30 -23 -14 -88 -70 -144
-125 l-101 -100 -6 33 c-6 40 9 140 30 192 9 22 32 54 52 71 31 27 41 31 78
26 24 -2 63 -17 88 -33z m1386 -2 c47 -47 70 -119 70 -219 l0 -73 -77 81 c-70
73 -174 160 -205 172 -30 11 90 77 141 77 25 0 42 -9 71 -38z m-913 -18 c26
-9 68 -30 91 -46 l44 -30 27 20 c57 42 117 65 181 70 169 12 359 -90 546 -293
191 -207 300 -382 345 -550 22 -85 38 -295 23 -295 -5 0 -20 18 -34 40 -27 44
-62 53 -79 21 -8 -14 -6 -25 10 -44 11 -14 32 -52 47 -84 24 -52 27 -70 27
-163 0 -116 -18 -176 -86 -282 l-34 -53 -7 60 c-17 136 -55 206 -94 174 -17
-14 -15 -30 11 -119 42 -142 -35 -305 -190 -405 -48 -31 -195 -90 -195 -79 0
3 8 18 19 32 35 49 52 102 40 124 -18 34 -50 18 -81 -41 -131 -255 -535 -336
-805 -162 -67 43 -115 95 -153 167 -20 39 -31 49 -50 49 -38 0 -38 -44 0 -111
17 -31 30 -57 28 -59 -10 -10 -153 52 -210 91 -78 53 -117 98 -156 181 -36 78
-38 195 -5 260 13 24 20 49 17 57 -7 18 -29 27 -48 20 -23 -9 -55 -95 -62
-169 l-7 -68 -20 24 c-30 37 -73 128 -92 194 -34 116 -6 272 64 362 16 19 18
30 10 44 -17 33 -52 23 -79 -21 -14 -22 -29 -40 -34 -40 -16 0 2 221 24 300
47 169 144 324 329 528 226 249 459 357 638 296z m-713 -319 c-10 -25 -34 -17
-34 10 0 22 3 24 20 15 11 -6 17 -16 14 -25z m1726 10 c0 -27 -12 -32 -29 -12
-8 10 -7 17 1 25 19 19 28 14 28 -13z m-1991 -844 c10 -7 11 -13 2 -30 -15
-26 -31 -19 -31 15 0 25 7 29 29 15z m2251 -15 c0 -34 -16 -41 -31 -15 -9 17
-8 23 2 30 22 14 29 10 29 -15z m-174 -560 c-18 -28 -36 -31 -36 -8 0 40 10
52 31 39 16 -10 17 -14 5 -31z m-1898 1 c4 -31 -8 -35 -31 -9 -13 14 -14 21
-5 30 18 18 33 9 36 -21z m506 -354 c4 -9 -5 -13 -29 -13 -38 0 -40 2 -25 31
9 16 14 17 30 7 11 -7 22 -18 24 -25z m912 20 c21 -28 17 -33 -28 -33 l-41 0
23 25 c28 30 29 30 46 8z"/>
<path d="M1104 2001 c-45 -21 -61 -46 -42 -68 12 -15 32 -14 103 8 35 10 46
10 79 -6 43 -21 69 -13 74 24 3 17 -6 25 -40 41 -54 25 -121 25 -174 1z"/>
<path d="M1728 2004 c-41 -17 -57 -47 -38 -69 16 -19 30 -19 66 0 38 19 60 19
111 -4 49 -23 77 -11 71 29 -6 49 -134 75 -210 44z"/>
<path d="M1157 1813 c-8 -10 -19 -30 -22 -45 -6 -22 -1 -33 24 -59 26 -25 37
-30 59 -24 15 3 35 14 45 22 23 22 22 78 -3 103 -25 25 -81 26 -103 3z m77
-46 c12 -20 -7 -39 -34 -34 -20 3 -26 37 -8 48 17 11 29 7 42 -14z"/>
<path d="M1741 1804 c-24 -31 -26 -43 -9 -79 29 -65 128 -41 128 32 0 68 -78
99 -119 47z m67 -60 c-19 -19 -38 -11 -38 16 0 24 21 31 40 14 12 -12 12 -16
-2 -30z"/>
<path d="M1395 1700 c-112 -23 -189 -66 -266 -147 -102 -106 -155 -249 -147
-393 3 -46 13 -93 26 -122 41 -93 154 -177 282 -209 35 -9 110 -14 205 -14
176 0 262 18 352 72 76 45 105 73 139 136 52 97 42 269 -24 405 -36 76 -137
181 -210 220 -102 55 -243 75 -357 52z m220 -75 c198 -52 335 -236 335 -450 0
-183 -174 -294 -460 -294 -206 -1 -366 73 -421 193 -35 77 -19 217 37 327 32
65 105 143 164 177 95 56 235 75 345 47z"/>
<path d="M1430 1558 c-91 -16 -118 -86 -58 -154 18 -20 47 -43 65 -51 30 -12
33 -18 33 -54 0 -49 -19 -88 -62 -124 -53 -45 -116 -68 -186 -68 -51 0 -65 -3
-73 -18 -7 -14 -5 -23 12 -40 19 -19 29 -21 78 -16 84 8 166 43 218 92 l45 44
25 -29 c37 -45 158 -101 231 -107 69 -6 92 5 92 43 0 27 3 26 -72 29 -84 2
-180 52 -219 113 -19 29 -29 59 -29 83 0 34 4 39 46 59 51 25 84 70 84 115 0
32 -5 42 -33 64 -22 18 -139 29 -197 19z m170 -56 c34 -27 20 -63 -40 -106
-28 -20 -54 -36 -60 -36 -22 0 -100 65 -111 93 -11 27 -10 32 10 48 33 27 169
27 201 1z"/>
</g>
</svg>
